#define coldend_nok_width 31
#define coldend_nok_height 16
static unsigned char coldend_nok_bits[] = {
   0xf8, 0xff, 0xff, 0x0f, 0xfe, 0xff, 0xff, 0x3f, 0x06, 0x00, 0x00, 0x3e,
   0xc3, 0x01, 0xc0, 0x7f, 0x83, 0x01, 0xf0, 0x6f, 0xc3, 0x1f, 0xfc, 0x61,
   0x43, 0xb0, 0x7f, 0x60, 0x43, 0xe0, 0x1f, 0x60, 0x63, 0xf8, 0xff, 0x63,
   0x63, 0xff, 0xff, 0x63, 0xc3, 0x7f, 0x00, 0x60, 0xf3, 0x07, 0x00, 0x60,
   0xff, 0x01, 0x00, 0x60, 0x3e, 0x00, 0x00, 0x30, 0xfe, 0xff, 0xff, 0x3f,
   0xf8, 0xff, 0xff, 0x0f };
