#define coldend_ok_width 31
#define coldend_ok_height 16
static unsigned char coldend_ok_bits[] = {
   0xf8, 0xff, 0xff, 0x0f, 0xfe, 0xff, 0xff, 0x3f, 0x06, 0x00, 0x00, 0x30,
   0xc3, 0x01, 0x00, 0x60, 0x83, 0x01, 0x00, 0x60, 0xc3, 0x1f, 0x00, 0x60,
   0x43, 0x30, 0x00, 0x60, 0x43, 0x60, 0x00, 0x60, 0x63, 0xc0, 0xff, 0x63,
   0x63, 0xc0, 0xff, 0x63, 0xc3, 0x7f, 0x00, 0x60, 0x03, 0x00, 0x00, 0x60,
   0x03, 0x00, 0x00, 0x60, 0x06, 0x00, 0x00, 0x30, 0xfe, 0xff, 0xff, 0x3f,
   0xf8, 0xff, 0xff, 0x0f };
