#define ocs2_nok_width 31
#define ocs2_nok_height 16
static unsigned char ocs2_nok_bits[] = {
   0xf8, 0xff, 0xff, 0x0f, 0xfe, 0xff, 0xff, 0x3f, 0x06, 0x00, 0x00, 0x3e,
   0x03, 0x00, 0xc0, 0x7f, 0xf3, 0x71, 0xfc, 0x6f, 0x1b, 0x9b, 0xfe, 0x6d,
   0x1b, 0x9b, 0x7f, 0x6c, 0x1b, 0xfb, 0x1f, 0x6c, 0x1b, 0xfb, 0x3f, 0x66,
   0x1b, 0xff, 0x30, 0x63, 0xdb, 0xbf, 0xb2, 0x61, 0xf3, 0x77, 0x9c, 0x6f,
   0xff, 0x01, 0x00, 0x60, 0x3e, 0x00, 0x00, 0x30, 0xfe, 0xff, 0xff, 0x3f,
   0xf8, 0xff, 0xff, 0x0f };
