#define ocs2_connection_inverted_s_width 27
#define ocs2_connection_inverted_s_height 12
static unsigned char ocs2_connection_inverted_s_bits[] = {
   0xfe, 0xff, 0xff, 0x03, 0xff, 0xff, 0xff, 0x07, 0x83, 0xe3, 0x38, 0x06,
   0x39, 0x59, 0xd6, 0x04, 0x39, 0x79, 0xfe, 0x04, 0x39, 0x79, 0xf8, 0x04,
   0x39, 0xf9, 0x70, 0x06, 0x39, 0xf9, 0x33, 0x07, 0x39, 0x59, 0x93, 0x07,
   0x83, 0xe3, 0x18, 0x04, 0xff, 0xff, 0xff, 0x07, 0xfe, 0xff, 0xff, 0x03 };
