#define ocs2_ok_width 31
#define ocs2_ok_height 16
static unsigned char ocs2_ok_bits[] = {
   0xf8, 0xff, 0xff, 0x0f, 0xfe, 0xff, 0xff, 0x3f, 0x06, 0x00, 0x00, 0x30,
   0x03, 0x00, 0x00, 0x60, 0xf3, 0x71, 0x1c, 0x67, 0x1b, 0x9b, 0xa6, 0x6c,
   0x1b, 0x1b, 0x06, 0x6c, 0x1b, 0x1b, 0x1e, 0x6c, 0x1b, 0x1b, 0x3c, 0x66,
   0x1b, 0x1b, 0x30, 0x63, 0x1b, 0x9b, 0xb2, 0x61, 0xf3, 0x71, 0x9c, 0x6f,
   0x03, 0x00, 0x00, 0x60, 0x06, 0x00, 0x00, 0x30, 0xfe, 0xff, 0xff, 0x3f,
   0xf8, 0xff, 0xff, 0x0f };
