#define ocs2_connection_inverted_width 31
#define ocs2_connection_inverted_height 16
static unsigned char ocs2_connection_inverted_bits[] = {
   0x07, 0x00, 0x00, 0x70, 0x01, 0x00, 0x00, 0x40, 0xf9, 0xff, 0xff, 0x4f,
   0xfc, 0xff, 0xff, 0x1f, 0x0c, 0x8e, 0xe3, 0x18, 0xe4, 0x64, 0x59, 0x13,
   0xe4, 0xe4, 0xf9, 0x13, 0xe4, 0xe4, 0xe1, 0x13, 0xe4, 0xe4, 0xc3, 0x19,
   0xe4, 0xe4, 0xcf, 0x1c, 0xe4, 0x64, 0x4d, 0x1e, 0x0c, 0x8e, 0x63, 0x10,
   0xfc, 0xff, 0xff, 0x1f, 0xf9, 0xff, 0xff, 0x4f, 0x01, 0x00, 0x00, 0x40,
   0x07, 0x00, 0x00, 0x70 };
